<svg width="1600" height="360" viewBox="0 0 1600 360" xmlns="http://www.w3.org/2000/svg" role="img" aria-label="Observer UI status overview">
  <defs>
    <linearGradient id="bg" x1="0" y1="0" x2="1" y2="1">
      <stop offset="0%" stop-color="#0b1324"/>
      <stop offset="100%" stop-color="#0a101c"/>
    </linearGradient>
  </defs>
  <rect width="1600" height="360" rx="16" fill="url(#bg)" stroke="#1f2a3d" stroke-width="2" />
  <g font-family="Inter, sans-serif" fill="#e7edf7" font-size="18" font-weight="700">
    <text x="40" y="46">Seed Status</text>
    <text x="340" y="46">Additional Persistence</text>
    <text x="730" y="46">Workers</text>
    <text x="1120" y="46">Identity Snapshot</text>
    <text x="1370" y="46">KPIs</text>
  </g>
  <g font-family="Inter, sans-serif" fill="#bfc9d9" font-size="16">
    <text x="40" y="82">Uptime</text><text x="200" y="82" fill="#c8d8ff" font-weight="700">4h 25m 57s</text>
    <text x="40" y="110">Age</text><text x="200" y="110" fill="#c8d8ff" font-weight="700">20h 52m 3s</text>
    <text x="40" y="138">Version</text><text x="200" y="138" fill="#c8d8ff" font-weight="700">alpha1-2025-12-07T 01:30:23Z</text>
    <text x="40" y="166">Health</text><text x="200" y="166" fill="#5cdfdf" font-weight="700">OK</text>
    <text x="40" y="194">Port</text><text x="200" y="194" fill="#c8d8ff" font-weight="700">8123</text>

    <text x="340" y="82">Vector</text><text x="520" y="82" fill="#c8d8ff" font-weight="700">core.extensions.persistence.vector_store: ok</text>
    <text x="340" y="110">Graph</text><text x="520" y="110" fill="#c8d8ff" font-weight="700">core.extensions.persistence.graph_store: ok</text>
    <text x="340" y="138">Timeseries</text><text x="520" y="138" fill="#c8d8ff" font-weight="700">core.extensions.persistence.timeseries_store: ok</text>

    <text x="730" y="82">status</text>
    <rect x="782" y="66" width="74" height="28" rx="8" fill="#0f2735" stroke="#5cdfdf" stroke-width="1" />
    <text x="794" y="86" fill="#5cdfdf" font-weight="700" font-size="14">telemetry</text>
    <text x="730" y="110">Status: Running · PID 53157</text>
    <text x="730" y="160">reflection</text>
    <rect x="822" y="144" width="74" height="28" rx="8" fill="#0f2735" stroke="#5cdfdf" stroke-width="1" />
    <text x="834" y="164" fill="#5cdfdf" font-weight="700" font-size="14">telemetry</text>
    <text x="730" y="188">Status: Running · PID 53158</text>

    <text x="1120" y="82">Identity ID</text><text x="1300" y="82" fill="#c8d8ff" font-weight="700">user-716..2fb86</text>
    <text x="1120" y="110">Traits</text><text x="1300" y="110" fill="#c8d8ff" font-weight="700">57fbd8bc..3867af</text>
    <text x="1120" y="138">Roles</text><text x="1300" y="138" fill="#c8d8ff" font-weight="700">user</text>
    <text x="1120" y="166">Preferences</text><text x="1300" y="166" fill="#c8d8ff" font-weight="700">n/a hash 4f53cda1..02b945</text>
    <text x="1120" y="194">Constraints</text><text x="1300" y="194" fill="#c8d8ff" font-weight="700">n/a hash 4f53cda1..02b945</text>

    <text x="1370" y="82">Workers</text><text x="1500" y="82" fill="#c8d8ff" font-weight="700">2/2</text>
    <text x="1370" y="110">Persistence</text><text x="1500" y="110" fill="#c8d8ff" font-weight="700">3 healthy</text>
    <text x="1370" y="138">Trace log</text><text x="1500" y="138" fill="#c8d8ff" font-weight="700">53.1 KB</text>
    <text x="1370" y="166">Reflection</text><text x="1500" y="166" fill="#c8d8ff" font-weight="700">762.2 KB</text>
  </g>
</svg>
